<?xml version="1.0" encoding="utf-8"?><!-- Generator: Adobe Illustrator 15.0.0, SVG Export Plug-In . SVG Version: 6.00 Build 0)  --><!DOCTYPE svg PUBLIC "-//W3C//DTD SVG 1.1//EN" "http://www.w3.org/Graphics/SVG/1.1/DTD/svg11.dtd"><svg xmlns="http://www.w3.org/2000/svg" xmlns:xlink="http://www.w3.org/1999/xlink" viewBox="0 0 48 48" width="100px" height="100px"><path fill="#4CAF50" d="M41,10H25v28h16c0.553,0,1-0.447,1-1V11C42,10.447,41.553,10,41,10z"/><g><rect x="32" y="15" fill="#FFFFFF" width="7" height="3"/><rect x="32" y="25" fill="#FFFFFF" width="7" height="3"/><rect x="32" y="30" fill="#FFFFFF" width="7" height="3"/><rect x="32" y="20" fill="#FFFFFF" width="7" height="3"/><rect x="25" y="15" fill="#FFFFFF" width="5" height="3"/><rect x="25" y="25" fill="#FFFFFF" width="5" height="3"/><rect x="25" y="30" fill="#FFFFFF" width="5" height="3"/><rect x="25" y="20" fill="#FFFFFF" width="5" height="3"/></g><polygon fill="#2E7D32" points="27,42 6,38 6,10 27,6 "/><path fill="#FFFFFF" d="M19.129,31l-2.411-4.561c-0.092-0.171-0.186-0.483-0.284-0.938h-0.037c-0.046,0.215-0.154,0.541-0.324,0.979L13.652,31H9.895l4.462-7.001L10.274,17h3.837l2.001,4.196c0.156,0.331,0.296,0.725,0.42,1.179h0.04c0.078-0.271,0.224-0.68,0.439-1.22L19.237,17h3.515l-4.199,6.939l4.316,7.059h-3.74V31z"/></svg>